# xmcd
#
# Track frame offsets:
#  150
#  10457
#  25240
#  42717
#  58255
#  74045
#  89737
#  100547
#  115597
#  133425
#  148197
#  162052
#
# Disc length: 2444 seconds
#
# Revision: 3
# Processed by: cddbd v1.5.1PL2 Copyright (c) Steve Scherf et al.
# Submitted via: Collectorz.com_Music_Collector 6.11
#
DISCID=b6098a0c
DTITLE=J.B. Hutto - Hawk Squat
DYEAR=1994
DGENRE=Blues
TTITLE0=Speak My Mind
TTITLE1=If You Change Your Mind
TTITLE2=Too Much Pride
TTITLE3=What Can You Get Outside That You Can't Get At Home
TTITLE4=The Same Mistake Twice
TTITLE5=20% Alcohol
TTITLE6=Hip-Shakin'
TTITLE7=The Feeling Is Gone
TTITLE8=Notoriety Woman
TTITLE9=Too Late
TTITLE10=Send Her Home To Me
TTITLE11=Hawk Squat
EXTD=
EXTT0=
EXTT1=
EXTT2=
EXTT3=
EXTT4=
EXTT5=
EXTT6=
EXTT7=
EXTT8=
EXTT9=
EXTT10=
EXTT11=
PLAYORDER=
